<svg width="800" height="800" viewBox="0 0 800 800" fill="#FFFFFF" xmlns="http://www.w3.org/2000/svg">
<path d="M566.983 733.333H233.017C141.3 733.333 66.6667 658.7 66.6667 566.983V233.017C66.6667 141.3 141.3 66.6666 233.017 66.6666H566.967C658.7 66.6666 733.333 141.3 733.333 233.017V566.967C733.333 658.7 658.7 733.333 566.983 733.333ZM233.017 133.333C206.59 133.369 181.255 143.882 162.569 162.569C143.882 181.255 133.369 206.59 133.333 233.017V566.967C133.369 593.395 143.882 618.731 162.568 637.42C181.254 656.11 206.588 666.627 233.017 666.667H566.967C593.395 666.631 618.731 656.118 637.42 637.432C656.11 618.746 666.627 593.412 666.667 566.983V233.017C666.631 206.59 656.118 181.255 637.431 162.569C618.745 143.882 593.41 133.369 566.983 133.333H233.017Z" fill="#FFFFFF"/>
<path d="M250 283.333C268.409 283.333 283.333 268.409 283.333 250C283.333 231.59 268.409 216.667 250 216.667C231.59 216.667 216.667 231.59 216.667 250C216.667 268.409 231.59 283.333 250 283.333Z" fill="#FFFFFF"/>
<path d="M216.667 333.333H283.333V583.333H216.667V333.333ZM583.333 583.333H516.667V458.817C516.667 417.367 500.783 398.05 466.667 398.05L400 399.35V583.333H333.333V333.983L466.017 331.383C523.067 331.383 583.333 364.867 583.333 458.817V583.333Z" fill="#FFFFFF"/>
</svg>
