<?xml version="1.0" standalone="no"?>
<!DOCTYPE svg PUBLIC "-//W3C//DTD SVG 20010904//EN"
 "http://www.w3.org/TR/2001/REC-SVG-20010904/DTD/svg10.dtd">
<svg version="1.0" xmlns="http://www.w3.org/2000/svg"
 width="80.000000pt" height="81.000000pt" viewBox="0 0 80.000000 81.000000"
 preserveAspectRatio="xMidYMid meet">

<g transform="translate(0.000000,81.000000) scale(0.100000,-0.100000)"
fill="#000000" stroke="none">
<path d="M519 623 c-40 -44 -109 -135 -109 -144 0 -4 10 -20 23 -34 l23 -27
87 111 c48 61 87 113 87 116 0 3 -19 5 -43 5 -34 0 -48 -6 -68 -27z"/>
<path d="M257 537 c19 -31 88 -117 93 -117 4 0 16 14 28 30 l23 30 -28 35
c-25 31 -33 35 -76 35 -37 0 -46 -3 -40 -13z"/>
<path d="M260 298 c-47 -61 -86 -115 -88 -119 -2 -5 17 -9 42 -9 44 0 46 2
102 73 32 39 64 79 71 89 13 14 11 20 -14 46 l-28 31 -85 -111z"/>
<path d="M432 382 c-27 -38 -27 -36 4 -78 24 -31 31 -34 76 -34 l49 0 -30 43
c-17 23 -41 55 -54 71 l-24 29 -21 -31z"/>
</g>
</svg>
